HIERARCHY
ROOT Hips
{
	OFFSET -3.958830 18.904000 13.208200
	CHANNELS 6 Xposition Yposition Zposition Zrotation Yrotation Xrotation 
	JOINT LHipJoint
	{
		OFFSET 0.000000 0.000000 0.000000
		CHANNELS 3 Zrotation Yrotation Xrotation
		JOINT LeftUpLeg
		{
			OFFSET 1.800000 -1.400000 0.085000
			CHANNELS 3 Zrotation Yrotation Xrotation
			JOINT LeftLeg
			{
				OFFSET 2.215000 -6.000000 0.000000
				CHANNELS 3 Zrotation Yrotation Xrotation
				JOINT LeftFoot
				{
					OFFSET 2.500000 -6.900000 0.000000
					CHANNELS 3 Zrotation Yrotation Xrotation
					JOINT LeftToeBase
					{
						OFFSET 0.200000 -0.500000 1.950000
						CHANNELS 3 Zrotation Yrotation Xrotation
						End Site
						{
							OFFSET 0.000000 0.000000 0.000000
						}
					}
				}
			}
		}
	}
	JOINT RHipJoint
	{
		OFFSET 0.000000 0.000000 0.000000
		CHANNELS 3 Zrotation Yrotation Xrotation
		JOINT RightUpLeg
		{
			OFFSET -1.800000 -1.400000 0.085000
			CHANNELS 3 Zrotation Yrotation Xrotation
			JOINT RightLeg
			{
				OFFSET -2.215000 -6.000000 0.000000
				CHANNELS 3 Zrotation Yrotation Xrotation
				JOINT RightFoot
				{
					OFFSET -2.500000 -6.900000 0.000000
					CHANNELS 3 Zrotation Yrotation Xrotation
					JOINT RightToeBase
					{
						OFFSET -0.200000 -0.500000 1.950000
						CHANNELS 3 Zrotation Yrotation Xrotation
						End Site
						{
							OFFSET 0.000000 0.000000 0.000000
						}
					}
				}
			}
		}
	}
	JOINT LowerBack
	{
		OFFSET 0.000000 0.000000 0.000000
		CHANNELS 3 Zrotation Yrotation Xrotation
		JOINT Spine
		{
			OFFSET -0.087000 1.940000 -0.288900
			CHANNELS 3 Zrotation Yrotation Xrotation
			JOINT Spine1
			{
				OFFSET 0.000000 1.950000 0.060000
				CHANNELS 3 Zrotation Yrotation Xrotation
				JOINT Neck
				{
					OFFSET 0.000000 0.000000 0.000000
					CHANNELS 3 Zrotation Yrotation Xrotation
					JOINT Neck1
					{
						OFFSET 0.000000 1.600000 0.340000
						CHANNELS 3 Zrotation Yrotation Xrotation
						JOINT Head
						{
							OFFSET 0.000000 1.667000 -0.240000
							CHANNELS 3 Zrotation Yrotation Xrotation
							End Site
							{
								OFFSET 0.000000 0.000000 0.000000
							}
						}
					}
				}
				JOINT LeftShoulder
				{
					OFFSET 0.000000 0.000000 0.000000
					CHANNELS 3 Zrotation Yrotation Xrotation
					JOINT LeftArm
					{
						OFFSET 2.700000 1.550000 -0.730000
						CHANNELS 3 Zrotation Yrotation Xrotation
						JOINT LeftForeArm
						{
							OFFSET 5.450000 0.000000 0.000000
							CHANNELS 3 Zrotation Yrotation Xrotation
							JOINT LeftHand
							{
								OFFSET 3.450000 0.000000 0.000000
								CHANNELS 3 Zrotation Yrotation Xrotation
								JOINT LeftHandIndex1
								{
									OFFSET 0.750000 0.000000 0.000000
									CHANNELS 3 Zrotation Yrotation Xrotation
									End Site
									{
										OFFSET 0.000000 0.000000 0.000000
									}
								}
							}
						}
					}
				}
				JOINT RightShoulder
				{
					OFFSET 0.000000 0.000000 0.000000
					CHANNELS 3 Zrotation Yrotation Xrotation
					JOINT RightArm
					{
						OFFSET -2.700000 1.550000 -0.730000
						CHANNELS 3 Zrotation Yrotation Xrotation
						JOINT RightForeArm
						{
							OFFSET -5.450000 0.000000 0.000000
							CHANNELS 3 Zrotation Yrotation Xrotation
							JOINT RightHand
							{
								OFFSET -3.450000 0.000000 0.000000
								CHANNELS 3 Zrotation Yrotation Xrotation
								JOINT RightHandIndex1
								{
									OFFSET -0.750000 0.000000 0.000000
									CHANNELS 3 Zrotation Yrotation Xrotation
									End Site
									{
										OFFSET 0.000000 0.000000 0.000000
									}
								}
							}
						}
					}
				}
			}
		}
	}
}
MOTION
Frames: 4
Frame Time: 0.016667
-0.054020 16.978030 -2.359970 14.940836 -39.911088 -30.717536 -15.835961 13.660128 4.795280 9.287322 6.953166 -53.136370 0.749903 5.958592 5.014239 0.420601 3.325707 3.120436 0.917060 0.725850 0.905600 17.778856 -9.656817 1.124527 -16.728754 1.598054 10.580047 -3.864640 -4.545500 21.405951 -1.018028 -4.895482 2.594817 -0.003230 -0.580980 0.454410 -0.656303 -7.010285 -8.587152 -10.164552 14.362739 53.108344 15.310864 14.583947 13.577922 1.470711 -12.620562 -18.604154 -23.157325 11.410174 38.546935 -10.419100 7.147310 -24.869550 -16.913551 -15.310263 10.236495 -48.154877 18.433555 -22.516173 -99.412281 -10.234938 -9.436997 -2.773302 3.779836 0.469300 -0.487900 0.737210 0.260320 16.742790 39.199166 13.783168 28.678386 30.518529 -16.446361 -129.327934 49.996814 -118.953434 2.978885 -1.305714 0.551580 -0.329550 -0.697750 0.043500 
-0.050490 16.991910 -2.358540 16.602950 -39.863637 -31.950480 -15.845582 13.848072 4.735515 8.879419 6.456940 -53.943979 0.987939 6.461952 10.453264 0.412074 3.496302 3.046913 0.918470 0.728130 0.913700 17.767130 -9.695963 0.997179 -17.611833 2.043154 9.800209 -4.685521 -4.274240 23.152512 -1.005218 -4.889331 2.592628 -0.005210 -0.592540 0.437390 -0.515263 -7.352887 -8.514251 -12.564295 15.943389 52.827827 16.719336 14.656754 13.475484 1.281178 -12.704529 -18.935781 -23.885622 11.739883 39.110390 -10.205040 7.037650 -25.327070 -17.218148 -15.895021 10.596384 -48.040554 18.827476 -22.727999 -99.446252 -10.680065 -9.109626 -2.760318 3.758645 0.486400 -0.507380 0.747870 0.258190 17.736518 39.541848 13.970816 28.000958 29.184579 -16.611556 -129.338601 51.254625 -121.056342 2.979458 -1.336608 0.545440 -0.314480 -0.703210 0.040460 
-0.046980 17.008310 -2.327710 18.353929 -41.174731 -33.509826 -15.888547 13.919428 4.818515 10.405281 6.911621 -54.851508 0.520530 7.907011 19.105943 0.514518 4.497529 2.664373 0.919460 0.736180 0.928970 17.798716 -9.601826 0.754811 -17.714938 2.613526 8.785343 -6.330104 -3.626768 25.978094 -1.023788 -4.870943 2.592724 -0.033950 -0.625660 0.436340 -0.238319 -7.833484 -8.560120 -15.285113 18.206287 52.490196 18.389059 15.137007 13.019647 1.521596 -12.519008 -19.421947 -24.707898 12.329645 40.500611 -10.443430 7.192230 -26.723080 -17.455222 -16.348801 10.995858 -48.391248 19.371723 -23.076261 -98.730731 -11.429374 -8.274651 -2.729528 3.738745 0.509310 -0.548310 0.792920 0.254080 17.977030 39.433252 14.207340 28.831089 27.304079 -16.651478 -130.232400 53.220820 -126.282424 2.981528 -1.434016 0.571150 -0.310340 -0.713070 0.049310 
-0.021090 17.025380 -2.266530 19.145539 -43.547608 -34.053467 -15.897576 13.707756 5.120025 12.988644 7.552031 -55.711785 -0.742341 9.992731 28.321424 0.655729 6.095218 2.087017 0.911270 0.712170 0.937830 17.908748 -9.479996 0.513916 -16.487619 3.361160 6.623052 -7.853394 -2.740078 29.762057 -1.032510 -4.896712 2.573844 -0.063090 -0.664120 0.441460 -0.087729 -7.892430 -8.711444 -16.286210 19.222564 52.669850 19.207522 15.340219 10.886986 1.670831 -12.402372 -19.276180 -25.420872 13.297371 41.327328 -11.877310 8.233390 -27.568580 -18.383146 -15.518675 10.954449 -48.652700 20.967491 -23.229158 -96.940540 -10.457416 -8.967982 -2.711241 3.727388 0.545540 -0.576970 0.814450 0.239100 18.858972 37.949458 13.931081 30.787949 24.945133 -15.975752 -132.059374 58.871098 -136.230588 2.894197 -1.730632 0.575510 -0.338310 -0.711050 0.031890 
